# File created by Blade
# Date/Time:  Thu Sep 25 21:01:51 2014
# Frame Rate: 120.000 fps
#------------------------------------------------------
:FULLY-SPECIFIED
:DEGREES
2135
root 4.513650 6.306399 -6.291209 38.995967 6.692169 -31.907749
Spine -7.436980 -4.901232 31.396709
Head -24.620452 -42.289932 29.205232
LeftShoulder -2.155455 17.350148 21.603876
LeftArm 27.943205 59.136716 -54.769901
LeftForeArm 22.819215 -0.000000 41.224413
LeftHand -25.084230 -0.000000 17.344660
LeftHandThumb1 -26.253704 0.000000 33.147579
RightShoulder -24.731744 0.890093 -33.619390
RightArm -32.603114 -21.736083 59.306881
RightForeArm 34.287455 -0.000000 30.566172
RightHand 0.283107 -0.000000 46.559565
RightHandThumb1 -24.326973 -0.000000 -32.862282
LeftUpLeg -113.549661 -22.231728 -38.800550
LeftLeg 133.791453 -0.000000 -0.000000
LeftFoot 41.424826 8.750852 -21.751916
LeftToeBase 10.609918 -0.000000 -0.000000
RightUpLeg -23.230981 31.321948 -52.349099
RightLeg 135.204252 -0.000000 -0.000000
RightFoot 38.917934 8.802573 -14.839644
RightToeBase 23.667350 -0.000000 -0.000000
2136
root 4.515974 6.304102 -6.287942 38.984667 6.743224 -31.915486
Spine -7.504249 -4.955891 31.525616
Head -24.536603 -42.292404 29.225632
LeftShoulder -2.150085 17.290907 21.608180
LeftArm 28.166873 59.377815 -54.586834
LeftForeArm 22.598722 -0.000000 41.143100
LeftHand -25.175540 -0.000000 17.254620
LeftHandThumb1 -26.253704 0.000000 33.147579
RightShoulder -24.809224 0.923343 -33.372218
RightArm -32.710455 -19.570361 58.734516
RightForeArm 34.416984 -0.000000 30.345180
RightHand 0.428465 -0.000000 46.312217
RightHandThumb1 -24.326973 -0.000000 -32.862282
LeftUpLeg -113.508097 -22.265532 -38.787198
LeftLeg 133.785435 -0.000000 -0.000000
LeftFoot 41.417985 8.778070 -21.747730
LeftToeBase 10.574575 -0.000000 -0.000000
RightUpLeg -23.219163 31.308102 -52.288240
RightLeg 134.876884 -0.000000 -0.000000
RightFoot 39.061660 9.120625 -14.210525
RightToeBase 24.204301 -0.000000 -0.000000
2137
root 4.516631 6.300151 -6.283256 38.940871 6.800471 -31.940114
Spine -7.538450 -5.006563 31.669150
Head -24.477889 -42.286212 29.255824
LeftShoulder -2.111718 17.209384 21.644854
LeftArm 28.352773 59.605320 -54.484054
LeftForeArm 22.386809 -0.000000 41.009498
LeftHand -25.164999 -0.000000 17.208010
LeftHandThumb1 -26.253704 0.000000 33.147579
RightShoulder -24.936253 1.038755 -33.143785
RightArm -32.959501 -17.609717 58.232858
RightForeArm 34.631578 0.000000 30.213743
RightHand 0.728563 -0.000000 46.083293
RightHandThumb1 -24.326973 -0.000000 -32.862282
LeftUpLeg -113.461569 -22.279389 -38.756266
LeftLeg 133.797435 -0.000000 -0.000000
LeftFoot 41.406029 8.720335 -21.674147
LeftToeBase 10.661967 -0.000000 -0.000000
RightUpLeg -23.128975 31.241899 -52.141255
RightLeg 134.708611 -0.000000 -0.000000
RightFoot 38.781044 9.404480 -13.826804
RightToeBase 24.292833 -0.000000 -0.000000
2138
root 4.521172 6.295941 -6.282259 38.923065 6.841016 -31.947366
Spine -7.592177 -5.033981 31.787482
Head -24.353645 -42.254467 29.208774
LeftShoulder -2.046494 17.145939 21.711766
LeftArm 28.541428 59.791925 -54.430349
LeftForeArm 22.159057 -0.000000 40.837440
LeftHand -25.107271 -0.000000 17.169928
LeftHandThumb1 -26.253704 0.000000 33.147579
RightShoulder -25.135352 1.136491 -32.841586
RightArm -33.107787 -15.843633 57.677642
RightForeArm 35.064483 -0.000000 30.080907
RightHand 0.942500 -0.000000 46.012167
RightHandThumb1 -24.326973 -0.000000 -32.862282
LeftUpLeg -113.414587 -22.313065 -38.741839
LeftLeg 133.793383 -0.000000 -0.000000
LeftFoot 41.405912 8.729659 -21.724354
LeftToeBase 10.744609 -0.000000 -0.000000
RightUpLeg -23.074339 31.127173 -52.041864
RightLeg 134.442246 -0.000000 -0.000000
RightFoot 39.070664 10.210602 -13.919694
RightToeBase 22.895396 -0.000000 -0.000000
2139
root 4.521835 6.290107 -6.281045 38.898653 6.873298 -31.967124
Spine -7.637481 -5.087727 31.910810
Head -24.212230 -42.186812 29.178919
LeftShoulder -2.028373 17.105466 21.768395
LeftArm 28.744715 59.970103 -54.345034
LeftForeArm 21.915778 -0.000000 40.702341
LeftHand -25.105613 -0.000000 17.047806
LeftHandThumb1 -26.253704 0.000000 33.147579
RightShoulder -25.381208 1.202221 -32.570909
RightArm -33.105028 -14.244024 57.193568
RightForeArm 35.395641 -0.000000 29.822771
RightHand 0.880503 0.000000 45.900242
RightHandThumb1 -24.326973 -0.000000 -32.862282
LeftUpLeg -113.400360 -22.335169 -38.719506
LeftLeg 133.808558 -0.000000 -0.000000
LeftFoot 41.391604 8.768815 -21.799879
LeftToeBase 10.805635 -0.000000 -0.000000
RightUpLeg -23.042536 31.023196 -51.939569
RightLeg 134.241862 -0.000000 -0.000000
RightFoot 38.987969 11.082955 -13.982581
RightToeBase 23.170477 -0.000000 -0.000000
2140
root 4.521041 6.284328 -6.279899 38.864284 6.907161 -32.008407
Spine -7.679080 -5.160361 32.063120
Head -24.001551 -42.072178 29.072494
LeftShoulder -2.018551 17.085347 21.817811
LeftArm 28.864875 60.109927 -54.346210
LeftForeArm 21.727592 -0.000000 40.581946
LeftHand -25.065587 -0.000000 16.971836
LeftHandThumb1 -26.253704 0.000000 33.147579
RightShoulder -25.626395 1.360280 -32.310817
RightArm -33.184412 -12.795433 56.691384
RightForeArm 35.496895 -0.000000 29.675816
RightHand 0.983112 -0.000000 45.639133
RightHandThumb1 -24.326973 -0.000000 -32.862282
LeftUpLeg -113.392425 -22.350295 -38.684694
LeftLeg 133.818265 -0.000000 -0.000000
LeftFoot 41.406817 8.770035 -21.761854
LeftToeBase 10.714086 -0.000000 -0.000000
RightUpLeg -23.003202 30.886077 -51.789732
RightLeg 134.082710 -0.000000 -0.000000
RightFoot 39.200132 11.882251 -13.657663
RightToeBase 22.266465 -0.000000 -0.000000
2141
root 4.519993 6.278682 -6.280537 38.836108 6.927372 -32.053348
Spine -7.720866 -5.231141 32.199302
Head -23.767906 -41.965508 28.954152
LeftShoulder -1.997811 17.048754 21.863570
LeftArm 28.772957 60.187222 -54.519698
LeftForeArm 21.605654 -0.000000 40.538632
LeftHand -25.019798 -0.000000 16.765819
LeftHandThumb1 -26.253704 0.000000 33.147579
RightShoulder -25.837412 1.533378 -32.024513
RightArm -33.264959 -11.400117 56.150809
RightForeArm 35.446821 -0.000000 29.525296
RightHand 1.237470 -0.000000 45.613454
RightHandThumb1 -24.326973 -0.000000 -32.862282
LeftUpLeg -113.401294 -22.359180 -38.646567
LeftLeg 133.833784 -0.000000 -0.000000
LeftFoot 41.403809 8.807002 -21.814298
LeftToeBase 10.760513 -0.000000 -0.000000
RightUpLeg -22.981989 30.740051 -51.654466
RightLeg 133.958828 -0.000000 -0.000000
RightFoot 39.499883 12.746940 -13.603412
RightToeBase 19.677031 -0.000000 -0.000000
2142
root 4.518230 6.272986 -6.281563 38.802538 6.937772 -32.123713
Spine -7.751878 -5.300689 32.349068
Head -23.517304 -41.881930 28.821458
LeftShoulder -1.978703 16.983996 21.904598
LeftArm 28.515288 60.245289 -54.824677
LeftForeArm 21.516025 -0.000000 40.565617
LeftHand -24.991800 -0.000000 16.552653
LeftHandThumb1 -26.253704 0.000000 33.147579
RightShoulder -26.017732 1.691116 -31.723926
RightArm -33.362657 -9.982322 55.540900
RightForeArm 35.387929 0.000000 29.487548
RightHand 1.288725 -0.000000 45.950093
RightHandThumb1 -24.326973 -0.000000 -32.862282
LeftUpLeg -113.436657 -22.355264 -38.581741
LeftLeg 133.852083 -0.000000 -0.000000
LeftFoot 41.409930 8.836849 -21.836477
LeftToeBase 10.786821 -0.000000 -0.000000
RightUpLeg -22.982193 30.623873 -51.520778
RightLeg 133.870532 -0.000000 -0.000000
RightFoot 39.609766 13.447013 -13.449082
RightToeBase 17.460283 -0.000000 -0.000000
2143
root 4.524294 6.267246 -6.286273 38.796627 6.906214 -32.159928
Spine -7.789658 -5.335216 32.457003
Head -23.310387 -41.795796 28.714233
LeftShoulder -1.960149 16.964895 21.896189
LeftArm 28.373199 60.310930 -54.958550
LeftForeArm 21.371714 -0.000000 40.660717
LeftHand -25.019328 0.000000 16.553362
LeftHandThumb1 -26.253704 0.000000 33.147579
RightShoulder -26.151134 1.888995 -31.435439
RightArm -33.501096 -8.352147 54.789886
RightForeArm 34.962309 -0.000000 29.475870
RightHand 1.499422 -0.000000 45.956428
RightHandThumb1 -24.326973 -0.000000 -32.862282
LeftUpLeg -113.460081 -22.363123 -38.560080
LeftLeg 133.833120 -0.000000 -0.000000
LeftFoot 41.407971 8.872331 -21.871687
LeftToeBase 10.742253 -0.000000 -0.000000
RightUpLeg -22.950302 30.386405 -51.426974
RightLeg 133.738004 -0.000000 -0.000000
RightFoot 39.808721 13.069843 -12.915593
RightToeBase 19.293518 -0.000000 -0.000000
2144
root 4.528140 6.261977 -6.293623 38.812226 6.850582 -32.208274
Spine -7.846344 -5.377046 32.552245
Head -23.055758 -41.723511 28.565516
LeftShoulder -1.962356 17.007111 21.907702
LeftArm 28.290707 60.331595 -55.078329
LeftForeArm 21.243547 -0.000000 40.697619
LeftHand -25.027734 -0.000000 16.400581
LeftHandThumb1 -26.253704 0.000000 33.147579
RightShoulder -26.271568 2.034035 -31.101343
RightArm -33.668077 -6.603371 53.952113
RightForeArm 34.500884 -0.000000 29.750999
RightHand 1.742407 -0.000000 45.336707
RightHandThumb1 -24.326973 -0.000000 -32.862282
LeftUpLeg -113.524312 -22.361541 -38.535993
LeftLeg 133.823862 -0.000000 -0.000000
LeftFoot 41.392230 8.981772 -21.998077
LeftToeBase 10.714487 -0.000000 -0.000000
RightUpLeg -22.959824 30.120264 -51.352160
RightLeg 133.676870 -0.000000 -0.000000
RightFoot 39.925829 12.952718 -12.967695
RightToeBase 19.725833 -0.000000 -0.000000
2145
root 4.534018 6.255378 -6.301242 38.800854 6.790340 -32.236573
Spine -7.874544 -5.454423 32.637006
Head -22.789815 -41.601813 28.386503
LeftShoulder -1.960761 17.068612 21.920056
LeftArm 28.299986 60.370326 -55.116893
LeftForeArm 21.128583 -0.000000 40.721361
LeftHand -25.007410 -0.000000 16.389019
LeftHandThumb1 -26.253704 0.000000 33.147579
RightShoulder -26.330060 2.224984 -30.821571
RightArm -33.921413 -4.777700 53.109324
RightForeArm 34.149506 -0.000000 30.061055
RightHand 1.971123 -0.000000 45.093933
RightHandThumb1 -24.326973 -0.000000 -32.862282
LeftUpLeg -113.548876 -22.361306 -38.541069
LeftLeg 133.798237 -0.000000 -0.000000
LeftFoot 41.382276 9.024251 -22.020764
LeftToeBase 10.668172 -0.000000 -0.000000
RightUpLeg -22.962448 29.942337 -51.312582
RightLeg 133.632786 -0.000000 -0.000000
RightFoot 39.916779 12.488396 -12.459705
RightToeBase 20.470772 -0.000000 -0.000000
2146
root 4.541100 6.250153 -6.309718 38.749550 6.723173 -32.274993
Spine -7.848659 -5.577401 32.729607
Head -22.473501 -41.462200 28.152515
LeftShoulder -1.978270 17.134888 21.931254
LeftArm 28.356633 60.393442 -55.129125
LeftForeArm 20.854289 -0.000000 40.667240
LeftHand -25.084183 0.000000 16.469732
LeftHandThumb1 -26.253704 0.000000 33.147579
RightShoulder -26.343750 2.550038 -30.591616
RightArm -34.264344 -3.030040 52.268907
RightForeArm 33.690354 -0.000000 30.387350
RightHand 2.223432 -0.000000 44.880311
RightHandThumb1 -24.326973 -0.000000 -32.862282
LeftUpLeg -113.548233 -22.319152 -38.546584
LeftLeg 133.777651 -0.000000 -0.000000
LeftFoot 41.408745 9.079731 -22.104949
LeftToeBase 10.553070 -0.000000 -0.000000
RightUpLeg -22.912926 29.703289 -51.202144
RightLeg 133.687298 -0.000000 -0.000000
RightFoot 39.825069 12.390789 -12.877608
RightToeBase 19.593664 -0.000000 -0.000000
